<svg width="60" height="60" viewBox="0 0 60 60" fill="none" xmlns="http://www.w3.org/2000/svg">
<path d="M30.0586 59.4727C22.207 59.4727 14.8125 56.4141 9.25781 50.8594C3.70312 45.3047 0.644531 37.9102 0.644531 30.0586C0.644531 22.207 3.70312 14.8125 9.25781 9.25781C14.8125 3.70312 22.207 0.644531 30.0586 0.644531C37.9102 0.644531 45.3047 3.70312 50.8594 9.25781C56.4141 14.8125 59.4727 22.1953 59.4727 30.0586C59.4727 37.9102 56.4141 45.3047 50.8594 50.8594C45.3047 56.4141 37.9102 59.4727 30.0586 59.4727ZM30.0586 3.57422C15.457 3.57422 3.57422 15.457 3.57422 30.0586C3.57422 44.6602 15.457 56.543 30.0586 56.543C44.6602 56.543 56.543 44.6602 56.543 30.0586C56.543 15.457 44.6602 3.57422 30.0586 3.57422Z" fill="#7E37D8"/>
<path d="M32.6367 39.9023C32.2617 39.9023 31.8867 39.7617 31.6055 39.4688C31.0313 38.8945 31.0313 37.9688 31.6055 37.3945L39.0117 29.9883L31.6055 22.582C31.0313 22.0078 31.0313 21.082 31.6055 20.5078C32.1797 19.9336 33.1055 19.9336 33.6797 20.5078L42.1172 28.9453C42.6914 29.5195 42.6914 30.4453 42.1172 31.0195L33.6797 39.457C33.3867 39.7617 33.0117 39.9023 32.6367 39.9023Z" fill="#7E37D8"/>
<path d="M41.0742 31.4648H24.1992C23.3906 31.4648 22.7344 30.8086 22.7344 30C22.7344 29.1914 23.3906 28.5352 24.1992 28.5352H41.0742C41.8828 28.5352 42.5391 29.1914 42.5391 30C42.5391 30.8086 41.8828 31.4648 41.0742 31.4648Z" fill="#7E37D8"/>
<path d="M19.9805 31.4648H18.9258C18.1172 31.4648 17.4609 30.8086 17.4609 30C17.4609 29.1914 18.1172 28.5352 18.9258 28.5352H19.9805C20.7891 28.5352 21.4453 29.1914 21.4453 30C21.4453 30.8086 20.7891 31.4648 19.9805 31.4648Z" fill="#7E37D8"/>
</svg>
